<svg fill="#000000" height="800px" width="800px" version="1.1" id="Capa_1" xmlns="http://www.w3.org/2000/svg" xmlns:xlink="http://www.w3.org/1999/xlink" 
	 viewBox="0 0 392.437 392.437" xml:space="preserve">
<g>
	<path d="M274.295,81.922c3.659,0,7.099-1.425,9.686-4.013c2.587-2.587,4.012-6.027,4.012-9.687c0-3.659-1.425-7.099-4.012-9.685
		c-2.587-2.588-6.027-4.013-9.686-4.013s-7.099,1.425-9.686,4.012c-2.587,2.588-4.013,6.027-4.013,9.686
		c0,3.659,1.425,7.1,4.013,9.688C267.195,80.497,270.635,81.922,274.295,81.922z M270.972,64.9c0.888-0.888,2.067-1.376,3.322-1.376
		s2.435,0.488,3.323,1.377c0.887,0.887,1.376,2.066,1.376,3.321c0,1.255-0.489,2.436-1.376,3.323
		c-0.887,0.887-2.067,1.376-3.322,1.376c-1.255,0-2.436-0.489-3.323-1.376c-0.888-0.888-1.376-2.068-1.376-3.323
		C269.595,66.968,270.084,65.788,270.972,64.9z"/>
	<path d="M391.119,144.304l-97.376-97.376c-5.348-5.349-12.454-8.294-20.009-8.294c-8.633,0-16.683,3.858-22.085,10.584
		l-21.293,26.512C146.559,178.846,17.676,288.065,13.678,291.442c-15.19,11.564-18.191,33.323-6.672,48.568
		c6.623,8.766,16.731,13.793,27.73,13.793c5.795,0,11.536-1.465,16.647-4.26c0.029-0.016,0.059-0.031,0.087-0.048
		c5.313-2.975,7.77-9.294,5.84-15.027c-0.108-0.319-0.207-0.642-0.298-0.966c-2.155-7.69,0.483-15.868,6.722-20.834
		c24.624-19.606,46.342-39.352,68.041-61.879l76.428,76.428c1.602,1.602,4.142,1.763,5.933,0.38
		c62.561-48.314,119.217-104.189,168.396-166.078l8.928-11.234C392.883,148.494,392.737,145.921,391.119,144.304z M237.357,81.386
		l21.31-26.532c3.685-4.588,9.176-7.22,15.067-7.22c5.151,0,9.997,2.01,13.645,5.657l75.643,75.643l-6.43,8.092
		c-47.905,60.286-102.988,114.8-163.739,162.113l-82.786-82.785C151.111,177.211,198.921,128.683,237.357,81.386z M58.129,305.628
		c-9.076,7.226-12.916,19.12-9.782,30.302c0.133,0.476,0.279,0.95,0.436,1.415c0.537,1.595-0.188,3.434-1.688,4.287
		c-0.01,0.006-0.02,0.011-0.028,0.016c-3.761,2.064-8.024,3.156-12.33,3.156c-8.152,0-15.642-3.725-20.549-10.219
		c-8.552-11.318-6.301-27.485,5.017-36.038c0.063-0.047,0.125-0.097,0.185-0.147c0.632-0.531,31.167-26.327,72.175-64.592
		l22.316,22.316C96.179,273.684,78.125,289.706,58.129,305.628z M120.232,249.748l-22.096-22.096
		c1.785-1.678,3.587-3.378,5.404-5.098l21.867,21.867C123.683,246.212,121.958,247.991,120.232,249.748z M375.487,155.92
		c-47.907,60.288-102.976,114.818-163.724,162.129l-12.499-12.499c60.964-47.592,116.258-102.372,164.375-162.924l5.789-7.286
		l12.489,12.489L375.487,155.92z"/>
</g>
</svg>
